<svg xmlns="http://www.w3.org/2000/svg" xmlns:xlink="http://www.w3.org/1999/xlink" width="2000" zoomAndPan="magnify" viewBox="0 0 1500 1499.999933" height="2000" preserveAspectRatio="xMidYMid meet" version="1.0"><defs><g/><clipPath id="2d0e0a77aa"><rect x="0" width="1109" y="0" height="464"/></clipPath><clipPath id="512b51edda"><rect x="0" width="1152" y="0" height="152"/></clipPath></defs><g transform="matrix(1, 0, 0, 1, 186, 508)"><g clip-path="url(#2d0e0a77aa)"><g fill="#f1efe7" fill-opacity="1"><g transform="translate(1.267422, 333.776976)"><g><path d="M 35.125 -23.484375 C 17.375 -42.835938 8.5 -66.566406 8.5 -94.671875 C 8.5 -122.785156 17.375 -146.582031 35.125 -166.0625 C 52.882812 -185.539062 75.445312 -195.28125 102.8125 -195.28125 C 127.96875 -195.28125 148.679688 -187.390625 164.953125 -171.609375 L 164.953125 -189.734375 L 230.40625 -189.734375 L 230.40625 0 L 165.6875 0 L 165.6875 -21.453125 L 164.953125 -21.453125 C 148.679688 -3.453125 127.96875 5.546875 102.8125 5.546875 C 75.445312 5.546875 52.882812 -4.128906 35.125 -23.484375 Z M 90.796875 -126.859375 C 82.285156 -118.472656 78.03125 -107.742188 78.03125 -94.671875 C 78.03125 -81.609375 82.097656 -70.945312 90.234375 -62.6875 C 98.378906 -54.425781 109.109375 -50.296875 122.421875 -50.296875 C 135.242188 -50.296875 145.78125 -54.488281 154.03125 -62.875 C 162.289062 -71.257812 166.421875 -81.863281 166.421875 -94.6875 C 166.421875 -107.75 162.164062 -118.472656 153.65625 -126.859375 C 145.15625 -135.242188 134.742188 -139.4375 122.421875 -139.4375 C 109.847656 -139.4375 99.304688 -135.242188 90.796875 -126.859375 Z M 90.796875 -126.859375 "/></g></g></g><g fill="#f1efe7" fill-opacity="1"><g transform="translate(219.103614, 333.776976)"><g><path d="M 83.953125 -189.734375 L 83.953125 -99.484375 C 83.953125 -80.742188 86.785156 -67.425781 92.453125 -59.53125 C 98.128906 -51.644531 107.75 -47.703125 121.3125 -47.703125 C 134.875 -47.703125 144.488281 -51.644531 150.15625 -59.53125 C 155.820312 -67.425781 158.65625 -80.742188 158.65625 -99.484375 L 158.65625 -189.734375 L 224.125 -189.734375 L 224.125 -83.578125 C 224.125 -52.023438 215.925781 -29.28125 199.53125 -15.34375 C 183.132812 -1.414062 157.0625 5.546875 121.3125 5.546875 C 85.5625 5.546875 59.484375 -1.414062 43.078125 -15.34375 C 26.679688 -29.28125 18.484375 -52.023438 18.484375 -83.578125 L 18.484375 -189.734375 Z M 83.953125 -189.734375 "/></g></g></g><g fill="#f1efe7" fill-opacity="1"><g transform="translate(426.954108, 333.776976)"><g><path d="M 35.125 -23.484375 C 17.375 -42.835938 8.5 -66.566406 8.5 -94.671875 C 8.5 -122.785156 17.375 -146.582031 35.125 -166.0625 C 52.882812 -185.539062 75.445312 -195.28125 102.8125 -195.28125 C 127.96875 -195.28125 148.679688 -187.390625 164.953125 -171.609375 L 164.953125 -318.0625 L 230.40625 -318.0625 L 230.40625 0 L 165.6875 0 L 165.6875 -21.453125 L 164.953125 -21.453125 C 148.679688 -3.453125 127.96875 5.546875 102.8125 5.546875 C 75.445312 5.546875 52.882812 -4.128906 35.125 -23.484375 Z M 90.796875 -126.859375 C 82.285156 -118.472656 78.03125 -107.742188 78.03125 -94.671875 C 78.03125 -81.609375 82.097656 -70.945312 90.234375 -62.6875 C 98.378906 -54.425781 109.109375 -50.296875 122.421875 -50.296875 C 135.242188 -50.296875 145.78125 -54.488281 154.03125 -62.875 C 162.289062 -71.257812 166.421875 -81.863281 166.421875 -94.6875 C 166.421875 -107.75 162.164062 -118.472656 153.65625 -126.859375 C 145.15625 -135.242188 134.742188 -139.4375 122.421875 -139.4375 C 109.847656 -139.4375 99.304688 -135.242188 90.796875 -126.859375 Z M 90.796875 -126.859375 "/></g></g></g><g fill="#f1efe7" fill-opacity="1"><g transform="translate(644.79032, 333.776976)"><g><path d="M 28.46875 -295.5 C 36.113281 -303.144531 45.238281 -306.96875 55.84375 -306.96875 C 66.445312 -306.96875 75.570312 -303.144531 83.21875 -295.5 C 90.863281 -287.863281 94.6875 -278.742188 94.6875 -268.140625 C 94.6875 -257.535156 90.863281 -248.410156 83.21875 -240.765625 C 75.570312 -233.117188 66.445312 -229.296875 55.84375 -229.296875 C 45.238281 -229.296875 36.113281 -233.117188 28.46875 -240.765625 C 20.832031 -248.410156 17.015625 -257.535156 17.015625 -268.140625 C 17.015625 -278.742188 20.832031 -287.863281 28.46875 -295.5 Z M 22.1875 -189.734375 L 22.1875 0 L 87.65625 0 L 87.65625 -189.734375 Z M 22.1875 -189.734375 "/></g></g></g><g fill="#f1efe7" fill-opacity="1"><g transform="translate(721.716994, 333.776976)"><g><path d="M 40.125 -22.5625 C 19.039062 -41.300781 8.5 -65.335938 8.5 -94.671875 C 8.5 -124.015625 19.472656 -148.117188 41.421875 -166.984375 C 63.367188 -185.847656 90.488281 -195.28125 122.78125 -195.28125 C 154.59375 -195.28125 181.40625 -185.785156 203.21875 -166.796875 C 225.039062 -147.816406 235.953125 -123.773438 235.953125 -94.671875 C 235.953125 -65.578125 225.289062 -41.597656 203.96875 -22.734375 C 182.644531 -3.878906 155.582031 5.546875 122.78125 5.546875 C 88.757812 5.546875 61.207031 -3.820312 40.125 -22.5625 Z M 90.796875 -126.859375 C 82.285156 -118.472656 78.03125 -107.742188 78.03125 -94.671875 C 78.03125 -81.609375 82.097656 -70.945312 90.234375 -62.6875 C 98.378906 -54.425781 109.109375 -50.296875 122.421875 -50.296875 C 135.242188 -50.296875 145.78125 -54.488281 154.03125 -62.875 C 162.289062 -71.257812 166.421875 -81.863281 166.421875 -94.6875 C 166.421875 -107.75 162.164062 -118.472656 153.65625 -126.859375 C 145.15625 -135.242188 134.742188 -139.4375 122.421875 -139.4375 C 109.847656 -139.4375 99.304688 -135.242188 90.796875 -126.859375 Z M 90.796875 -126.859375 "/></g></g></g><g fill="#000000" fill-opacity="1"><g transform="translate(931.42778, 333.776976)"><g/></g></g><g fill="#f1efe7" fill-opacity="1"><g transform="translate(997.648681, 333.776976)"><g><path d="M 64.359375 -79.140625 C 76.191406 -79.140625 86.238281 -75.007812 94.5 -66.75 C 102.757812 -58.488281 106.890625 -48.441406 106.890625 -36.609375 C 106.890625 -25.023438 102.757812 -15.101562 94.5 -6.84375 C 86.238281 1.414062 76.191406 5.546875 64.359375 5.546875 C 52.765625 5.546875 42.835938 1.414062 34.578125 -6.84375 C 26.316406 -15.101562 22.1875 -25.023438 22.1875 -36.609375 C 22.1875 -48.441406 26.316406 -58.488281 34.578125 -66.75 C 42.835938 -75.007812 52.765625 -79.140625 64.359375 -79.140625 Z M 64.359375 -79.140625 "/></g></g></g></g></g><g transform="matrix(1, 0, 0, 1, 216, 886)"><g clip-path="url(#512b51edda)"><g fill="#f1efe7" fill-opacity="1"><g transform="translate(1.609099, 115.70976)"><g><path d="M 107.078125 -85.53125 C 108.617188 -85.53125 110.035156 -84.960938 111.328125 -83.828125 C 112.628906 -82.691406 113.28125 -81.191406 113.28125 -79.328125 C 113.28125 -78.679688 113.15625 -77.992188 112.90625 -77.265625 L 87.71875 -3.65625 C 87.394531 -2.519531 86.726562 -1.644531 85.71875 -1.03125 C 84.707031 -0.425781 83.632812 -0.0820312 82.5 0 C 81.363281 0 80.265625 -0.320312 79.203125 -0.96875 C 78.148438 -1.625 77.378906 -2.554688 76.890625 -3.765625 L 57.921875 -48.1875 L 39.0625 -3.765625 C 38.570312 -2.554688 37.796875 -1.625 36.734375 -0.96875 C 35.679688 -0.320312 34.550781 0 33.34375 0 C 32.207031 -0.0820312 31.148438 -0.445312 30.171875 -1.09375 C 29.203125 -1.738281 28.554688 -2.59375 28.234375 -3.65625 L 3.046875 -77.265625 C 2.796875 -77.992188 2.671875 -78.679688 2.671875 -79.328125 C 2.671875 -81.109375 3.335938 -82.585938 4.671875 -83.765625 C 6.015625 -84.941406 7.457031 -85.53125 9 -85.53125 C 10.300781 -85.53125 11.476562 -85.1875 12.53125 -84.5 C 13.582031 -83.8125 14.269531 -82.898438 14.59375 -81.765625 L 35.15625 -20.8125 L 52.8125 -64.125 C 53.289062 -65.257812 54.015625 -66.148438 54.984375 -66.796875 C 55.960938 -67.441406 57.0625 -67.765625 58.28125 -67.765625 C 59.5 -67.765625 60.59375 -67.441406 61.5625 -66.796875 C 62.539062 -66.148438 63.269531 -65.257812 63.75 -64.125 L 80.90625 -20.8125 L 101.359375 -81.765625 C 101.679688 -82.984375 102.367188 -83.914062 103.421875 -84.5625 C 104.472656 -85.207031 105.691406 -85.53125 107.078125 -85.53125 Z M 107.078125 -85.53125 "/></g></g></g><g fill="#f1efe7" fill-opacity="1"><g transform="translate(196.860455, 115.70976)"><g><path d="M 58.28125 -11.1875 C 59.988281 -11.1875 61.390625 -10.617188 62.484375 -9.484375 C 63.578125 -8.347656 64.125 -7.007812 64.125 -5.46875 C 64.125 -3.851562 63.578125 -2.535156 62.484375 -1.515625 C 61.390625 -0.503906 59.988281 0 58.28125 0 L 15.9375 0 C 14.3125 0 12.929688 -0.566406 11.796875 -1.703125 C 10.660156 -2.835938 10.09375 -4.21875 10.09375 -5.84375 L 10.09375 -79.328125 C 10.09375 -80.953125 10.660156 -82.332031 11.796875 -83.46875 C 12.929688 -84.601562 14.3125 -85.171875 15.9375 -85.171875 L 58.28125 -85.171875 C 59.988281 -85.171875 61.390625 -84.640625 62.484375 -83.578125 C 63.578125 -82.523438 64.125 -81.148438 64.125 -79.453125 C 64.125 -77.828125 63.578125 -76.503906 62.484375 -75.484375 C 61.390625 -74.472656 59.988281 -73.96875 58.28125 -73.96875 L 22.140625 -73.96875 L 22.140625 -49.15625 L 52.8125 -49.15625 C 54.507812 -49.15625 55.90625 -48.625 57 -47.5625 C 58.09375 -46.507812 58.640625 -45.175781 58.640625 -43.5625 C 58.640625 -41.851562 58.09375 -40.507812 57 -39.53125 C 55.90625 -38.5625 54.507812 -38.078125 52.8125 -38.078125 L 22.140625 -38.078125 L 22.140625 -11.1875 Z M 58.28125 -11.1875 "/></g></g></g><g fill="#f1efe7" fill-opacity="1"><g transform="translate(345.530731, 115.70976)"><g><path d="M 58.890625 -46.484375 C 63.347656 -44.941406 67.015625 -42.40625 69.890625 -38.875 C 72.773438 -35.34375 74.21875 -30.738281 74.21875 -25.0625 C 74.21875 -16.0625 71.601562 -9.632812 66.375 -5.78125 C 61.144531 -1.925781 54.753906 0 47.203125 0 L 15.9375 0 C 14.3125 0 12.929688 -0.566406 11.796875 -1.703125 C 10.660156 -2.835938 10.09375 -4.21875 10.09375 -5.84375 L 10.09375 -79.328125 C 10.09375 -80.953125 10.660156 -82.332031 11.796875 -83.46875 C 12.929688 -84.601562 14.3125 -85.171875 15.9375 -85.171875 L 47.203125 -85.171875 C 54.585938 -85.171875 60.207031 -83.34375 64.0625 -79.6875 C 67.914062 -76.039062 69.84375 -70.769531 69.84375 -63.875 C 69.84375 -59.976562 68.910156 -56.507812 67.046875 -53.46875 C 65.179688 -50.425781 62.460938 -48.097656 58.890625 -46.484375 Z M 57.3125 -62.046875 C 57.3125 -65.859375 56.273438 -68.757812 54.203125 -70.75 C 52.140625 -72.738281 49.238281 -73.734375 45.5 -73.734375 L 22.515625 -73.734375 L 22.515625 -50 L 45.75 -50 C 49.070312 -50.082031 51.828125 -51.15625 54.015625 -53.21875 C 56.210938 -55.289062 57.3125 -58.234375 57.3125 -62.046875 Z M 47.09375 -11.1875 C 51.550781 -11.1875 55.117188 -12.34375 57.796875 -14.65625 C 60.472656 -16.96875 61.8125 -20.4375 61.8125 -25.0625 C 61.8125 -34.0625 56.703125 -38.5625 46.484375 -38.5625 L 22.515625 -38.5625 L 22.515625 -11.1875 Z M 47.09375 -11.1875 "/></g></g></g><g fill="#f1efe7" fill-opacity="1"><g transform="translate(504.295632, 115.70976)"><g><path d="M 35.890625 1.21875 C 29.972656 1.21875 24.742188 0.390625 20.203125 -1.265625 C 15.660156 -2.929688 11.316406 -5.632812 7.171875 -9.375 C 5.472656 -10.832031 4.625 -12.492188 4.625 -14.359375 C 4.625 -15.816406 5.191406 -17.132812 6.328125 -18.3125 C 7.460938 -19.488281 8.800781 -20.078125 10.34375 -20.078125 C 11.71875 -20.078125 12.894531 -19.628906 13.875 -18.734375 C 17.113281 -15.734375 20.457031 -13.523438 23.90625 -12.109375 C 27.351562 -10.691406 31.269531 -9.984375 35.65625 -9.984375 C 40.757812 -9.984375 45.078125 -11.15625 48.609375 -13.5 C 52.140625 -15.851562 53.90625 -18.816406 53.90625 -22.390625 C 53.820312 -26.609375 52.054688 -29.875 48.609375 -32.1875 C 45.160156 -34.5 39.90625 -36.425781 32.84375 -37.96875 C 24.488281 -39.664062 18.0625 -42.460938 13.5625 -46.359375 C 9.0625 -50.253906 6.8125 -55.648438 6.8125 -62.546875 C 6.8125 -67.328125 8.066406 -71.519531 10.578125 -75.125 C 13.097656 -78.738281 16.585938 -81.519531 21.046875 -83.46875 C 25.503906 -85.414062 30.535156 -86.390625 36.140625 -86.390625 C 41.171875 -86.390625 45.914062 -85.578125 50.375 -83.953125 C 54.832031 -82.328125 58.441406 -80.175781 61.203125 -77.5 C 63.066406 -75.882812 64 -74.140625 64 -72.265625 C 64 -70.804688 63.453125 -69.507812 62.359375 -68.375 C 61.265625 -67.238281 59.945312 -66.671875 58.40625 -66.671875 C 57.269531 -66.671875 56.335938 -67 55.609375 -67.65625 C 53.492188 -69.757812 50.570312 -71.539062 46.84375 -73 C 43.113281 -74.457031 39.546875 -75.1875 36.140625 -75.1875 C 30.703125 -75.1875 26.378906 -74.070312 23.171875 -71.84375 C 19.972656 -69.613281 18.375 -66.675781 18.375 -63.03125 C 18.375 -59.050781 19.972656 -56.003906 23.171875 -53.890625 C 26.378906 -51.785156 31.144531 -50.003906 37.46875 -48.546875 C 43.800781 -47.171875 48.972656 -45.546875 52.984375 -43.671875 C 57.003906 -41.804688 60.109375 -39.210938 62.296875 -35.890625 C 64.484375 -32.566406 65.578125 -28.226562 65.578125 -22.875 C 65.578125 -18.164062 64.257812 -13.984375 61.625 -10.328125 C 58.988281 -6.679688 55.398438 -3.84375 50.859375 -1.8125 C 46.316406 0.207031 41.328125 1.21875 35.890625 1.21875 Z M 35.890625 1.21875 "/></g></g></g><g fill="#f1efe7" fill-opacity="1"><g transform="translate(654.42549, 115.70976)"><g><path d="M 71.421875 -85.171875 C 73.203125 -85.171875 74.660156 -84.625 75.796875 -83.53125 C 76.929688 -82.4375 77.5 -81.035156 77.5 -79.328125 L 77.5 -5.96875 C 77.425781 -4.257812 76.816406 -2.835938 75.671875 -1.703125 C 74.535156 -0.566406 73.078125 0 71.296875 0 C 69.671875 0 68.269531 -0.566406 67.09375 -1.703125 C 65.925781 -2.835938 65.34375 -4.257812 65.34375 -5.96875 L 65.34375 -37.46875 L 22.140625 -37.46875 L 22.140625 -5.96875 C 22.140625 -4.257812 21.53125 -2.835938 20.3125 -1.703125 C 19.101562 -0.566406 17.6875 0 16.0625 0 C 14.28125 0 12.835938 -0.566406 11.734375 -1.703125 C 10.640625 -2.835938 10.09375 -4.257812 10.09375 -5.96875 L 10.09375 -79.328125 C 10.09375 -80.953125 10.660156 -82.332031 11.796875 -83.46875 C 12.929688 -84.601562 14.394531 -85.171875 16.1875 -85.171875 C 17.800781 -85.171875 19.195312 -84.601562 20.375 -83.46875 C 21.550781 -82.332031 22.140625 -80.953125 22.140625 -79.328125 L 22.140625 -48.671875 L 65.34375 -48.671875 L 65.34375 -79.328125 C 65.34375 -80.953125 65.945312 -82.332031 67.15625 -83.46875 C 68.375 -84.601562 69.796875 -85.171875 71.421875 -85.171875 Z M 71.421875 -85.171875 "/></g></g></g><g fill="#f1efe7" fill-opacity="1"><g transform="translate(821.217385, 115.70976)"><g><path d="M 87.484375 -42.578125 C 87.484375 -34.390625 85.71875 -26.96875 82.1875 -20.3125 C 78.65625 -13.664062 73.765625 -8.414062 67.515625 -4.5625 C 61.273438 -0.707031 54.222656 1.21875 46.359375 1.21875 C 38.492188 1.21875 31.4375 -0.707031 25.1875 -4.5625 C 18.9375 -8.414062 14.046875 -13.664062 10.515625 -20.3125 C 6.992188 -26.96875 5.234375 -34.390625 5.234375 -42.578125 C 5.234375 -50.773438 6.992188 -58.195312 10.515625 -64.84375 C 14.046875 -71.5 18.9375 -76.753906 25.1875 -80.609375 C 31.4375 -84.460938 38.492188 -86.390625 46.359375 -86.390625 C 54.222656 -86.390625 61.273438 -84.460938 67.515625 -80.609375 C 73.765625 -76.753906 78.65625 -71.5 82.1875 -64.84375 C 85.71875 -58.195312 87.484375 -50.773438 87.484375 -42.578125 Z M 74.953125 -42.578125 C 74.953125 -48.660156 73.734375 -54.15625 71.296875 -59.0625 C 68.867188 -63.976562 65.484375 -67.832031 61.140625 -70.625 C 56.796875 -73.425781 51.867188 -74.828125 46.359375 -74.828125 C 40.835938 -74.828125 35.90625 -73.445312 31.5625 -70.6875 C 27.226562 -67.925781 23.84375 -64.09375 21.40625 -59.1875 C 18.976562 -54.28125 17.765625 -48.742188 17.765625 -42.578125 C 17.765625 -36.492188 18.976562 -31 21.40625 -26.09375 C 23.84375 -21.1875 27.226562 -17.332031 31.5625 -14.53125 C 35.90625 -11.738281 40.835938 -10.34375 46.359375 -10.34375 C 51.867188 -10.34375 56.796875 -11.738281 61.140625 -14.53125 C 65.484375 -17.332031 68.867188 -21.1875 71.296875 -26.09375 C 73.734375 -31 74.953125 -36.492188 74.953125 -42.578125 Z M 74.953125 -42.578125 "/></g></g></g><g fill="#f1efe7" fill-opacity="1"><g transform="translate(993.23901, 115.70976)"><g><path d="M 44.171875 -85.171875 C 48.460938 -85.171875 52.429688 -84.015625 56.078125 -81.703125 C 59.734375 -79.390625 62.632812 -76.242188 64.78125 -72.265625 C 66.9375 -68.296875 68.015625 -63.914062 68.015625 -59.125 C 68.015625 -54.34375 66.9375 -49.921875 64.78125 -45.859375 C 62.632812 -41.804688 59.734375 -38.601562 56.078125 -36.25 C 52.429688 -33.90625 48.460938 -32.734375 44.171875 -32.734375 L 21.296875 -32.734375 L 21.296875 -5.84375 C 21.296875 -4.21875 20.765625 -2.835938 19.703125 -1.703125 C 18.648438 -0.566406 17.316406 0 15.703125 0 C 13.992188 0 12.628906 -0.546875 11.609375 -1.640625 C 10.597656 -2.734375 10.09375 -4.132812 10.09375 -5.84375 L 10.09375 -79.328125 C 10.09375 -80.953125 10.660156 -82.332031 11.796875 -83.46875 C 12.929688 -84.601562 14.3125 -85.171875 15.9375 -85.171875 Z M 44.171875 -43.796875 C 46.359375 -43.796875 48.382812 -44.503906 50.25 -45.921875 C 52.113281 -47.347656 53.59375 -49.238281 54.6875 -51.59375 C 55.78125 -53.945312 56.328125 -56.457031 56.328125 -59.125 C 56.328125 -63.269531 55.128906 -66.78125 52.734375 -69.65625 C 50.347656 -72.53125 47.492188 -73.96875 44.171875 -73.96875 L 21.296875 -73.96875 L 21.296875 -43.796875 Z M 44.171875 -43.796875 "/></g></g></g></g></g></svg>