<?xml version="1.0" encoding="UTF-8"?>
<svg version="1.1" xmlns="http://www.w3.org/2000/svg" width="1024" height="1024">
<path d="M0 0 C8.58 0 17.16 0 26 0 C27.9955516 3.99110319 28.19546065 5.69986566 28 10 C28.721875 9.38125 29.44375 8.7625 30.1875 8.125 C35.21239544 4.32841233 39.70622426 3.20708337 46 4 C51.47321084 6.03903933 55.32236173 9.25477373 58.375 14.25 C59.56883129 19.50285767 58.60980347 24.29896927 56.8125 29.3125 C53.86518013 33.68266395 50.69203121 35.56132524 45.625 36.875 C40.0825957 37.06611739 34.79116717 35.94841057 30 33 C29.34 32.34 28.68 31.68 28 31 C28.33 36.28 28.66 41.56 29 47 C30.14597656 47.06058594 31.29195312 47.12117188 32.47265625 47.18359375 C34.00261297 47.26806989 35.53256041 47.35271427 37.0625 47.4375 C37.81466797 47.47681641 38.56683594 47.51613281 39.34179688 47.55664062 C43.93462354 47.81511139 48.47723468 48.11624126 53 49 C56.19957621 52.62618637 56.39499187 56.32493719 57 61 C57.78503906 60.31292969 58.57007813 59.62585938 59.37890625 58.91796875 C60.43971701 58.00736129 61.50093699 57.0972304 62.5625 56.1875 C63.07619141 55.73568359 63.58988281 55.28386719 64.11914062 54.81835938 C75.20811848 45.38239685 90.70423335 45.41262042 104.62890625 46.20703125 C116.93139179 47.92328412 125.57430049 54.07127365 134 63 C139.48284762 70.35296619 140.36370716 77.36253644 140.375 86.25 C140.39949219 87.24902344 140.42398437 88.24804688 140.44921875 89.27734375 C140.49239491 100.28726452 136.34695013 107.96378376 129 116 C121.89906754 123.02938654 110.69216571 125.3846244 101 126 C100.13375 126.06316406 99.2675 126.12632812 98.375 126.19140625 C86.41357816 126.68449678 75.03969291 123.50520059 65 117 C63.989375 116.401875 62.97875 115.80375 61.9375 115.1875 C61.298125 114.795625 60.65875 114.40375 60 114 C59.74605469 114.63808594 59.49210937 115.27617188 59.23046875 115.93359375 C58.88628906 116.75988281 58.54210937 117.58617187 58.1875 118.4375 C57.85105469 119.26121094 57.51460937 120.08492187 57.16796875 120.93359375 C56 123 56 123 53 124 C51.26654193 124.0878506 49.52986731 124.11764814 47.79418945 124.11352539 C46.20287956 124.11341209 46.20287956 124.11341209 44.579422 124.11329651 C43.43559555 124.10813522 42.2917691 124.10297394 41.11328125 124.09765625 C39.94113571 124.0962413 38.76899017 124.09482635 37.56132507 124.09336853 C33.81169093 124.08776388 30.06211615 124.07521056 26.3125 124.0625 C23.77278732 124.0574856 21.2330737 124.05292259 18.69335938 124.04882812 C12.46221927 124.03779294 6.23111388 124.02105025 0 124 C-0.33 123.01 -0.66 122.02 -1 121 C-4.08560741 121.48212616 -6.49874353 122.22166379 -9.375 123.5 C-17.92561897 126.77125953 -28.19819911 127.17477537 -36.80078125 124.00390625 C-44.12712315 120.6595548 -52.29243095 115.41513809 -56 108 C-56.41958984 108.76183594 -56.41958984 108.76183594 -56.84765625 109.5390625 C-60.43596498 115.70033858 -64.36713604 120.41062202 -71 123.3125 C-78.87065122 125.1161909 -86.569981 125.24857128 -94.625 125.3125 C-96.41744141 125.35600586 -96.41744141 125.35600586 -98.24609375 125.40039062 C-108.85939318 125.47513217 -119.64593487 124.06334191 -127.8125 116.75 C-129.02873047 115.69039062 -129.02873047 115.69039062 -130.26953125 114.609375 C-130.84058594 114.07828125 -131.41164063 113.5471875 -132 113 C-132.20496094 113.71027344 -132.40992188 114.42054688 -132.62109375 115.15234375 C-132.89050781 116.07144531 -133.15992188 116.99054688 -133.4375 117.9375 C-133.70433594 118.85402344 -133.97117187 119.77054688 -134.24609375 120.71484375 C-135 123 -135 123 -136 124 C-140.28556793 124.2538237 -144.58280853 124.185229 -148.875 124.1875 C-150.08542969 124.19974609 -151.29585938 124.21199219 -152.54296875 124.22460938 C-153.70183594 124.22654297 -154.86070312 124.22847656 -156.0546875 124.23046875 C-157.12187012 124.23457764 -158.18905273 124.23868652 -159.28857422 124.24291992 C-162 124 -162 124 -165 122 C-167.79927908 122.65804581 -167.79927908 122.65804581 -170.875 123.875 C-180.7288688 127.09393048 -189.77245162 127.33211614 -199.43359375 123.32421875 C-208.82977103 118.47596289 -215.48573821 111.44979023 -219.375 101.625 C-222.27559395 92.113469 -223.27731804 77.26752243 -219 68 C-216.5570792 64.14190702 -213.85752204 60.55842367 -211 57 C-210.3296875 56.11183594 -209.659375 55.22367187 -208.96875 54.30859375 C-203.973607 48.45119393 -196.35782632 46.94786812 -189 46 C-184.12952962 45.68062489 -179.93773449 46.15857054 -175.13793945 47.00341797 C-167.92469516 48.13072529 -160.89364119 48.25572434 -153.60546875 48.1953125 C-152.29210037 48.1924826 -150.97873199 48.18965271 -149.62556458 48.18673706 C-146.1815082 48.17920366 -142.73762818 48.15964762 -139.29364014 48.1373291 C-135.76023746 48.11664497 -132.2268055 48.10768777 -128.69335938 48.09765625 C-121.79550177 48.07638876 -114.89775941 48.0423821 -108 48 C-106.31713971 51.36572059 -106.82045756 55.17884502 -106.7890625 58.8828125 C-106.76097552 60.70834202 -106.73231095 62.53386272 -106.703125 64.359375 C-106.66200241 67.23599834 -106.62511543 70.11246044 -106.59863281 72.98925781 C-106.57084958 75.76662268 -106.52495925 78.54324016 -106.4765625 81.3203125 C-106.47330963 82.16957306 -106.47005676 83.01883362 -106.46670532 83.89382935 C-106.35148244 89.55389971 -105.34209424 93.82712106 -103 99 C-100.55645425 101.09446778 -98.91766823 101.00776715 -95.6875 101.3125 C-91.37666025 100.9471746 -88.81960059 99.98619231 -85 98 C-83.83748191 95.67496381 -83.85776118 94.27963102 -83.82641602 91.68969727 C-83.80618126 90.35304771 -83.80618126 90.35304771 -83.78553772 88.98939514 C-83.77509933 88.02480881 -83.76466095 87.06022247 -83.75390625 86.06640625 C-83.72097363 84.03580289 -83.68776189 82.00520403 -83.65429688 79.97460938 C-83.60682443 76.76394704 -83.56238774 73.55330378 -83.52319336 70.3425293 C-83.48355237 67.25029442 -83.43199336 64.15843536 -83.37890625 61.06640625 C-83.3704921 60.10384415 -83.36207794 59.14128204 -83.35340881 58.14955139 C-83.32844582 56.8081736 -83.32844582 56.8081736 -83.30297852 55.43969727 C-83.29267105 54.65297134 -83.28236359 53.86624542 -83.27174377 53.05567932 C-83 51 -83 51 -81 48 C-76.91082628 47.18055137 -72.72465367 47.20793299 -68.5625 47.0625 C-67.40427734 46.99482422 -66.24605469 46.92714844 -65.05273438 46.85742188 C-63.94349609 46.81294922 -62.83425781 46.76847656 -61.69140625 46.72265625 C-60.67248291 46.67890869 -59.65355957 46.63516113 -58.60375977 46.59008789 C-56 47 -56 47 -54.17626953 48.86987305 C-52.84908334 51.2732976 -52.51300752 53.02309776 -52.3125 55.75 C-52.24675781 56.54921875 -52.18101562 57.3484375 -52.11328125 58.171875 C-52.07589844 58.77515625 -52.03851563 59.3784375 -52 60 C-51.11248047 59.07767578 -51.11248047 59.07767578 -50.20703125 58.13671875 C-49.02173828 56.92435547 -49.02173828 56.92435547 -47.8125 55.6875 C-47.03519531 54.88699219 -46.25789062 54.08648437 -45.45703125 53.26171875 C-38.88977253 47.21649967 -32.83628209 46.80454211 -24.3125 46.8125 C-23.51392578 46.81258057 -22.71535156 46.81266113 -21.89257812 46.81274414 C-15.4787398 46.87461606 -8.83908194 47.08045903 -3 50 C-1.94662194 44.8729752 -1.90110659 40.00686147 -1.97265625 34.8046875 C-1.98529442 33.01953313 -1.99765597 31.23437678 -2.00976562 29.44921875 C-2.03463578 26.65341951 -2.06270541 23.85772442 -2.09594727 21.06201172 C-2.12613044 18.35123019 -2.14391006 15.64058329 -2.16015625 12.9296875 C-2.18034569 11.67646194 -2.18034569 11.67646194 -2.20094299 10.3979187 C-2.20601112 9.22617599 -2.20601112 9.22617599 -2.21118164 8.03076172 C-2.21863907 7.34714569 -2.2260965 6.66352966 -2.23377991 5.959198 C-2 4 -2 4 0 0 Z M-190.0390625 78.0703125 C-192.11283066 82.23470873 -191.89201262 86.52728425 -191 91 C-188.92748353 95.3784563 -186.41813019 98.21214989 -182.1875 100.5625 C-176.22475469 101.38091602 -171.78967159 101.12683026 -166.625 97.875 C-163.31583807 94.2506798 -161.14051031 91.02097175 -160.90625 85.984375 C-161.2784466 81.10859952 -162.76705508 77.75720625 -166 74 C-174.41580948 68.12850501 -183.84160115 70.135983 -190.0390625 78.0703125 Z M-27.3125 76.125 C-29.96826148 80.64963066 -30.65705927 85.10592979 -29.48828125 90.25390625 C-28.23438213 93.85637832 -27.02770447 96.56802442 -24 99 C-18.14022975 101.10009249 -12.7596802 101.64945289 -7 99 C-3.26582186 95.16489813 -0.73365829 91.16308365 -0.5 85.75 C-0.59472204 80.97443038 -2.37053197 78.28683504 -5.296875 74.62890625 C-8.39818074 71.66274915 -10.57860272 71.03398365 -14.875 70.6875 C-20.07746824 70.84222025 -23.48604307 72.60879634 -27.3125 76.125 Z M84.8125 75.3125 C81.75716727 79.84282094 80.25863769 83.49273709 81 89 C83.4542974 94.83639042 83.4542974 94.83639042 87.80078125 99.24609375 C90.59324768 100.2033691 92.98725303 100.30133891 95.9375 100.3125 C96.95714844 100.32925781 97.97679687 100.34601563 99.02734375 100.36328125 C102.42090962 99.94856164 104.2582786 99.00835885 107 97 C110.7486058 91.82950924 110.82355586 86.14921709 110 80 C107.86390823 75.56958744 105.59601298 72.83840519 101 71 C94.69665596 70.27666544 89.35348976 70.51202511 84.8125 75.3125 Z " fill="#F0F0E8" transform="translate(522,422)"/>
<path d="M0 0 C2.29013653 3.4352048 2.17842973 4.985331 2 9 C2.721875 8.38125 3.44375 7.7625 4.1875 7.125 C9.21239544 3.32841233 13.70622426 2.20708337 20 3 C25.47321084 5.03903933 29.32236173 8.25477373 32.375 13.25 C33.56883129 18.50285767 32.60980347 23.29896927 30.8125 28.3125 C27.86518013 32.68266395 24.69203121 34.56132524 19.625 35.875 C14.0825957 36.06611739 8.79116717 34.94841057 4 32 C3.01 31.01 3.01 31.01 2 30 C2.33 35.28 2.66 40.56 3 46 C4.14597656 46.06058594 5.29195312 46.12117188 6.47265625 46.18359375 C8.00261297 46.26806989 9.53256041 46.35271427 11.0625 46.4375 C12.19075195 46.49647461 12.19075195 46.49647461 13.34179688 46.55664062 C17.94698741 46.81580719 22.44366724 47.2799421 27 48 C27 48.33 27 48.66 27 49 C19.08 49 11.16 49 3 49 C3 72.76 3 96.52 3 121 C10.92 121 18.84 121 27 121 C27 121.66 27 122.32 27 123 C9.51 123 -7.98 123 -26 123 C-26.33 122.01 -26.66 121.02 -27 120 C-30.08560741 120.48212616 -32.49874353 121.22166379 -35.375 122.5 C-43.92561897 125.77125953 -54.19819911 126.17477537 -62.80078125 123.00390625 C-70.12712315 119.6595548 -78.29243095 114.41513809 -82 107 C-82.41958984 107.76183594 -82.41958984 107.76183594 -82.84765625 108.5390625 C-86.43596498 114.70033858 -90.36713604 119.41062202 -97 122.3125 C-104.87065122 124.1161909 -112.569981 124.24857128 -120.625 124.3125 C-122.41744141 124.35600586 -122.41744141 124.35600586 -124.24609375 124.40039062 C-133.98456206 124.46897139 -144.25429173 123.46709942 -152 117 C-151.67 115.68 -151.34 114.36 -151 113 C-151 113.99 -151 114.98 -151 116 C-150.45472656 116.18175781 -149.90945313 116.36351562 -149.34765625 116.55078125 C-142 119 -142 119 -140.04003906 119.76391602 C-134.12598919 121.96566368 -128.9059138 122.43918449 -122.625 122.3125 C-121.70033936 122.30049561 -120.77567871 122.28849121 -119.82299805 122.27612305 C-109.54148672 122.06333968 -99.58615065 121.24037219 -91 115 C-87.29627836 110.77484343 -84.98691808 106.22485864 -83 101 C-82.34 101 -81.68 101 -81 101 C-80.76925781 101.53109375 -80.53851563 102.0621875 -80.30078125 102.609375 C-78.15444759 107.25835068 -76.25501673 109.97669864 -72 113 C-71.01 114.485 -71.01 114.485 -70 116 C-60.80259037 121.83681765 -51.96330632 123.49243908 -41.14453125 121.46484375 C-36.07418275 120.06110128 -32.23852389 118.07292982 -28 115 C-27.34 115 -26.68 115 -26 115 C-25.67 114.34 -25.34 113.68 -25 113 C-25 115.64 -25 118.28 -25 121 C-17.08 121 -9.16 121 -1 121 C-1.00523682 117.37008057 -1.01047363 113.74016113 -1.01586914 110.00024414 C-1.03240191 98.03804548 -1.0435208 86.07584762 -1.05181217 74.11364079 C-1.05697505 66.85741151 -1.06401758 59.60119304 -1.07543945 52.3449707 C-1.08538656 46.02266144 -1.09185349 39.70035999 -1.09408849 33.37804312 C-1.09539556 30.0284325 -1.09848113 26.67884426 -1.10573006 23.3292408 C-1.1129362 19.59586355 -1.11399112 15.86253342 -1.11352539 12.12915039 C-1.11712067 11.01065704 -1.12071594 9.8921637 -1.12442017 8.73977661 C-1.1230455 7.72870346 -1.12167084 6.71763031 -1.12025452 5.67591858 C-1.12163721 4.34991937 -1.12163721 4.34991937 -1.12304783 2.9971323 C-1 1 -1 1 0 0 Z " fill="#FEFDFA" transform="translate(548,423)"/>
<path d="M0 0 C4.12197739 2.39074688 7.03167711 4.91807541 8.75 9.4375 C9.81266493 15.79726568 9.96251069 21.59305882 6.125 27 C1.85280285 31.73135853 -2.45375842 35.07973435 -9.03515625 35.59765625 C-14.97364348 35.16824183 -19.75404684 32.89911277 -23.97265625 28.77734375 C-26.65573738 25.3444471 -27.29732553 21.84450478 -27.5 17.5625 C-27.53738281 16.85649658 -27.57476563 16.15049316 -27.61328125 15.4230957 C-27.67130841 10.93583462 -27.1161728 8.0915198 -24.25 4.625 C-17.22479041 -1.66436748 -8.76846151 -3.83104156 0 0 Z " fill="#F2F2EB" transform="translate(709.25,513.5625)"/>
<path d="M0 0 C7.21324429 1.12730732 14.24429826 1.25230637 21.5324707 1.19189453 C22.84583908 1.18906464 24.15920746 1.18623474 25.51237488 1.18331909 C28.95643125 1.17578569 32.40031128 1.15622965 35.84429932 1.13391113 C39.37770199 1.113227 42.91113395 1.1042698 46.44458008 1.09423828 C53.34243769 1.07297079 60.24018004 1.03896413 67.13793945 0.99658203 C68.82079975 4.36230262 68.31748189 8.17542705 68.34887695 11.87939453 C68.37696393 13.70492405 68.4056285 15.53044475 68.43481445 17.35595703 C68.47593705 20.23258037 68.51282402 23.10904247 68.53930664 25.98583984 C68.56708987 28.76320471 68.61298021 31.53982219 68.66137695 34.31689453 C68.66462982 35.16615509 68.66788269 36.01541565 68.67123413 36.89041138 C68.78645702 42.55048174 69.79584521 46.82370309 72.13793945 51.99658203 C74.5814852 54.09104981 76.22027122 54.00434918 79.45043945 54.30908203 C83.7612792 53.94375663 86.31833886 52.98277434 90.13793945 50.99658203 C91.30237347 48.667714 91.28024179 47.2650152 91.31152344 44.67041016 C91.33175819 43.32891907 91.33175819 43.32891907 91.35240173 41.96032715 C91.36284012 40.99260376 91.3732785 40.02488037 91.3840332 39.02783203 C91.41696076 36.9926713 91.45017258 34.95751516 91.48364258 32.92236328 C91.53115518 29.70283049 91.57560072 26.48331772 91.61474609 23.26367188 C91.65432709 20.16402964 91.7058949 17.06476724 91.7590332 13.96533203 C91.76744736 12.99760864 91.77586151 12.02988525 91.78453064 11.03283691 C91.80949364 9.69134583 91.80949364 9.69134583 91.83496094 8.32275391 C91.8452684 7.53380737 91.85557587 6.74486084 91.86619568 5.93200684 C92.13793945 3.99658203 92.13793945 3.99658203 94.13793945 1.99658203 C96.14549826 4.00414083 95.30192922 8.04929099 95.3059082 10.80126953 C95.3092366 11.59501984 95.312565 12.38877014 95.31599426 13.20657349 C95.32107213 14.89633606 95.32340232 16.58610871 95.32324219 18.27587891 C95.32540103 20.826186 95.34346919 23.3760407 95.36254883 25.92626953 C95.4434936 48.1244878 95.4434936 48.1244878 91.75195312 52.72314453 C87.33350283 56.55144332 84.08708451 57.29801523 78.45825195 57.20751953 C75.05596092 56.89822035 72.91165462 55.97780715 70.13793945 53.99658203 C66.03290118 47.48514202 65.99502991 41.20346069 66.0402832 33.75830078 C66.04169815 32.87753372 66.0431131 31.99676666 66.04457092 31.08930969 C66.05015008 28.287532 66.06269875 25.48583541 66.07543945 22.68408203 C66.08045715 20.77978631 66.08501958 18.87548934 66.08911133 16.97119141 C66.09926004 12.3129322 66.1188395 7.65484748 66.13793945 2.99658203 C58.21793945 2.99658203 50.29793945 2.99658203 42.13793945 2.99658203 C42.13793945 9.92658203 42.13793945 16.85658203 42.13793945 23.99658203 C41.47793945 23.99658203 40.81793945 23.99658203 40.13793945 23.99658203 C39.80793945 24.65658203 39.47793945 25.31658203 39.13793945 25.99658203 C39.13793945 18.40658203 39.13793945 10.81658203 39.13793945 2.99658203 C31.21793945 2.99658203 23.29793945 2.99658203 15.13793945 2.99658203 C14.80793945 5.30658203 14.47793945 7.61658203 14.13793945 9.99658203 C13.37481445 9.23345703 12.61168945 8.47033203 11.82543945 7.68408203 C3.9103068 1.14387852 -6.84869856 1.38583933 -16.5534668 2.23095703 C-18.65986779 2.45511238 -20.76175156 2.72113167 -22.86206055 2.99658203 C-22.86206055 3.65658203 -22.86206055 4.31658203 -22.86206055 4.99658203 C-24.18206055 4.99658203 -25.50206055 4.99658203 -26.86206055 4.99658203 C-26.86206055 5.65658203 -26.86206055 6.31658203 -26.86206055 6.99658203 C-28.18206055 6.99658203 -29.50206055 6.99658203 -30.86206055 6.99658203 C-30.86206055 7.65658203 -30.86206055 8.31658203 -30.86206055 8.99658203 C-31.52206055 8.99658203 -32.18206055 8.99658203 -32.86206055 8.99658203 C-33.2468457 9.85703125 -33.2468457 9.85703125 -33.6394043 10.73486328 C-34.97773832 13.21056743 -36.57651631 15.0659687 -38.42456055 17.18408203 C-42.13230182 21.94568337 -42.90368246 25.06129704 -42.86206055 30.99658203 C-42.8850817 32.35208106 -42.90999311 33.70754864 -42.9362793 35.06298828 C-43.02994834 42.15396691 -42.85874307 48.96443309 -41.86206055 55.99658203 C-48.21637997 48.26088882 -46.26241866 36.66301023 -45.6940918 27.19970703 C-44.62937213 20.33539671 -40.10364334 15.27855306 -35.86206055 9.99658203 C-35.19174805 9.10841797 -34.52143555 8.22025391 -33.83081055 7.30517578 C-25.87129468 -2.02830413 -11.07337307 -1.9491063 0 0 Z " fill="#FDFDF9" transform="translate(346.862060546875,469.00341796875)"/>
<path d="M0 0 C10.8994709 -0.57142857 10.8994709 -0.57142857 15 3 C15.33 3.99 15.66 4.98 16 6 C16.66 6 17.32 6 18 6 C20.87416115 10.31124172 20.5468647 14.25076203 19.5703125 19.16015625 C18.42911848 22.92891429 17.16047999 25.32916366 13.8125 27.5 C8.97476201 29.81147735 4.59439826 29.4941711 -0.625 28.5 C-4.88612004 25.80876629 -8.2053306 21.89886442 -9.5546875 16.9765625 C-9.88439538 12.06973343 -8.06503792 8.63652585 -5.484375 4.56640625 C-3.72409915 2.708852 -2.49476523 2.37847934 0 2 C0 1.34 0 0.68 0 0 Z " fill="#F0EFE9" transform="translate(558,428)"/>
<path d="M0 0 C1.65 1.32 3.3 2.64 5 4 C3.17889883 9.71163548 1.13922117 15.2879483 -1.1328125 20.8359375 C-1.81367079 22.53501629 -2.42117043 24.26351128 -3 26 C-5.875 25.375 -5.875 25.375 -9 24 C-10.375 20.875 -10.375 20.875 -11 18 C-11.4125 18.969375 -11.825 19.93875 -12.25 20.9375 C-14 24 -14 24 -16.0625 24.9375 C-18 25 -18 25 -20 24 C-20.74609375 21.99609375 -20.74609375 21.99609375 -21.4375 19.4375 C-22.37720971 16.06900211 -23.41690968 12.85728749 -24.75 9.625 C-26.30238829 5.12307396 -26.30238829 5.12307396 -25 2 C-22 1 -22 1 -19.9375 1.75 C-18 3 -18 3 -16 6 C-15.0925 5.62875 -14.185 5.2575 -13.25 4.875 C-10 4 -10 4 -7.625 4.875 C-7.08875 5.24625 -6.5525 5.6175 -6 6 C-4.02 4.02 -2.04 2.04 0 0 Z " fill="#FAFAF8" transform="translate(413,558)"/>
<path d="M0 0 C3.49890004 2.11391877 4.70578686 3.11736059 6 7 C6.09308544 8.66458673 6.12996185 10.33281997 6.125 12 C6.12886719 13.299375 6.12886719 13.299375 6.1328125 14.625 C5.94150899 18.04595681 5.29841584 19.68349835 2.9375 22.1875 C-0.75077892 24.46324657 -3.8229369 24.96456643 -8 24 C-11.49455003 21.98775361 -13.76557718 19.35163424 -16 16 C-16.54602034 12.60892629 -16.54627924 9.39125824 -16 6 C-11.41882226 0.09269186 -7.18287159 -0.91801813 0 0 Z " fill="#FBFCF9" transform="translate(594,559)"/>
<path d="M0 0 C5.72053798 -0.30645739 11.05297085 -0.24030409 16 3 C16.9375 5.5 16.9375 5.5 17 9 C17.19722656 10.33417969 17.19722656 10.33417969 17.3984375 11.6953125 C18.47494943 19.3121422 18.47494943 19.3121422 16.1875 22.625 C12.88812326 24.69889395 10.95310981 25.181443 7.0625 25.25 C6.18722656 25.27578125 5.31195313 25.3015625 4.41015625 25.328125 C1.46878904 24.92767955 0.7957842 24.31618076 -1 22 C-1.35644531 19.85522461 -1.35644531 19.85522461 -1.328125 17.40234375 C-1.32296875 16.51869141 -1.3178125 15.63503906 -1.3125 14.72460938 C-1.291875 13.80486328 -1.27125 12.88511719 -1.25 11.9375 C-1.24484375 11.01388672 -1.2396875 10.09027344 -1.234375 9.13867188 C-1.15455544 2.30911088 -1.15455544 2.30911088 0 0 Z " fill="#F2F3EF" transform="translate(470,558)"/>
<path d="M0 0 C2.6953125 1.0234375 2.6953125 1.0234375 5 3 C5.49732152 5.860371 5.65734031 8.02979062 5.5625 10.875 C5.57345703 11.58269531 5.58441406 12.29039062 5.59570312 13.01953125 C5.52681645 17.95181713 4.50435822 20.5545936 1 24 C-1.4441794 25.2220897 -3.21029872 25.23641068 -5.9375 25.3125 C-6.81277344 25.34988281 -7.68804687 25.38726563 -8.58984375 25.42578125 C-11 25 -11 25 -12.8359375 23.14453125 C-14.48906714 20.09900047 -13.68849707 18.37989471 -13 15 C-13.04326402 13.29107131 -13.10714299 11.58258654 -13.1875 9.875 C-13.24887421 5.34012808 -13.24887421 5.34012808 -11.125 2.4375 C-7.24073931 -0.19008811 -4.71728171 -0.31981571 0 0 Z " fill="#FDFDFB" transform="translate(518,558)"/>
<path d="M0 0 C1.4083804 4.85108805 0.6621046 9.07099906 0 14 C-2.97 14 -5.94 14 -9 14 C-9 14.66 -9 15.32 -9 16 C-6.36 16 -3.72 16 -1 16 C0.125 17.75 0.125 17.75 1 20 C0.0546875 22.140625 0.0546875 22.140625 -1 24 C-2.76949095 24.10815225 -4.54087487 24.18566083 -6.3125 24.25 C-7.29863281 24.29640625 -8.28476562 24.3428125 -9.30078125 24.390625 C-12 24 -12 24 -13.80078125 22.51953125 C-15.53746069 18.87080735 -15.68601513 15.43655476 -15.875 11.4375 C-15.93429687 10.66986328 -15.99359375 9.90222656 -16.0546875 9.11132812 C-16.36512596 3.54768893 -16.36512596 3.54768893 -14.6796875 1.01953125 C-10.02270676 -1.80714776 -5.12000763 -0.92160137 0 0 Z " fill="#FEFEFC" transform="translate(450,559)"/>
<path d="M0 0 C2.375 0.625 2.375 0.625 5 2 C6.3125 5.125 6.3125 5.125 7 8 C7.99 7.67 8.98 7.34 10 7 C11.22969878 3.48809191 11.22969878 3.48809191 12 0 C16.63041958 1.34038462 16.63041958 1.34038462 18.1796875 4.10546875 C19.22265725 7.78566202 19.0354709 10.81621726 18.75 14.625 C18.66234375 15.93726563 18.5746875 17.24953125 18.484375 18.6015625 C18 22 18 22 16 25 C14.35 24.67 12.7 24.34 11 24 C11 21.36 11 18.72 11 16 C9.68 15.67 8.36 15.34 7 15 C6.01 17.64 5.02 20.28 4 23 C2.35 22.67 0.7 22.34 -1 22 C-1.22595954 18.89685213 -1.42770896 15.79259193 -1.625 12.6875 C-1.68945312 11.80642578 -1.75390625 10.92535156 -1.8203125 10.01757812 C-1.871875 9.17001953 -1.9234375 8.32246094 -1.9765625 7.44921875 C-2.02893066 6.66893311 -2.08129883 5.88864746 -2.13525391 5.0847168 C-2 3 -2 3 0 0 Z " fill="#F3F4F1" transform="translate(542,558)"/>
<path d="M0 0 C2.49609375 -0.36328125 2.49609375 -0.36328125 5.4375 -0.3125 C6.40558594 -0.30863281 7.37367188 -0.30476562 8.37109375 -0.30078125 C11 0 11 0 14 2 C14.3984375 4.49609375 14.3984375 4.49609375 14.375 7.4375 C14.38273438 8.40558594 14.39046875 9.37367188 14.3984375 10.37109375 C14 13 14 13 12.6640625 14.828125 C11 16 11 16 8 16.3125 C7.01 16.539375 6.02 16.76625 5 17 C3.06530151 19.95071844 3.06530151 19.95071844 2 23 C0.0234375 21.50390625 0.0234375 21.50390625 -2 19 C-2.34610972 16.15779388 -2.47155782 13.76054569 -2.375 10.9375 C-2.37371094 10.21755859 -2.37242187 9.49761719 -2.37109375 8.75585938 C-2.30827835 4.99740478 -2.12799008 3.19198512 0 0 Z " fill="#F7F7F5" transform="translate(621,559)"/>
<path d="M0 0 C2.99972484 4.49958725 2.36838078 8.82962206 2.375 14.125 C2.39949219 15.13304687 2.42398438 16.14109375 2.44921875 17.1796875 C2.49221334 28.24362869 -1.61375306 35.92080025 -9 44 C-16.10093246 51.02938654 -27.30783429 53.3846244 -37 54 C-37.86625 54.06316406 -38.7325 54.12632812 -39.625 54.19140625 C-49.20448019 54.58630503 -59.53877335 52.69598079 -68 48 C-68 47.34 -68 46.68 -68 46 C-65.50920182 46.41513303 -63.36391176 46.81391729 -61.10546875 47.96875 C-53.50170214 51.69304385 -44.26005211 51.51625326 -36 51 C-35.34 50.67 -34.68 50.34 -34 50 C-32.29297265 49.93003986 -30.58331997 49.91559846 -28.875 49.9375 C-27.96492187 49.94652344 -27.05484375 49.95554687 -26.1171875 49.96484375 C-25.41851563 49.97644531 -24.71984375 49.98804688 -24 50 C-24 49.34 -24 48.68 -24 48 C-22.906875 47.731875 -21.81375 47.46375 -20.6875 47.1875 C-12.61847389 44.16700894 -5.36581759 36.1266076 -1.75488281 28.42456055 C-0.14831499 23.26452657 -0.31480611 17.86123284 -0.25 12.5 C-0.22035156 11.29601562 -0.19070313 10.09203125 -0.16015625 8.8515625 C-0.08990419 5.90097607 -0.03698514 2.95115944 0 0 Z " fill="#FCFCF9" transform="translate(660,494)"/>
<path d="M0 0 C3.83039408 1.27679803 3.98757415 2.59435626 6 6 C11.0129176 11.89755012 18.40767402 16.36243949 26 18 C33.67007451 18.61713243 39.89446397 17.87304711 47 15 C49 14.33333333 51 13.66666667 53 13 C53 12.34 53 11.68 53 11 C53.66 11 54.32 11 55 11 C55 10.34 55 9.68 55 9 C55.66 9 56.32 9 57 9 C57 11.64 57 14.28 57 17 C64.92 17 72.84 17 81 17 C81 15.68 81 14.36 81 13 C81.66 13 82.32 13 83 13 C82.125 17.875 82.125 17.875 81 19 C76.71443207 19.2538237 72.41719147 19.185229 68.125 19.1875 C66.30935547 19.20586914 66.30935547 19.20586914 64.45703125 19.22460938 C63.29816406 19.22654297 62.13929688 19.22847656 60.9453125 19.23046875 C59.87812988 19.23457764 58.81094727 19.23868652 57.71142578 19.24291992 C55 19 55 19 52 17 C49.20072092 17.65804581 49.20072092 17.65804581 46.125 18.875 C36.2711312 22.09393048 27.22754838 22.33211614 17.56640625 18.32421875 C10.207846 14.52733606 4.20833942 9.17893196 0 2 C0 1.34 0 0.68 0 0 Z " fill="#FDFDFA" transform="translate(305,527)"/>
<path d="M0 0 C0.33 0 0.66 0 1 0 C1 14.85 1 29.7 1 45 C0.01 45.33 -0.98 45.66 -2 46 C-2 45.34 -2 44.68 -2 44 C-14.09973086 40.59932282 -25.65232657 37.75548726 -38 42 C-40.35959458 43.49486846 -40.35959458 43.49486846 -42 45 C-42.66 45 -43.32 45 -44 45 C-44 45.66 -44 46.32 -44 47 C-44.66 47 -45.32 47 -46 47 C-46.28875 47.639375 -46.5775 48.27875 -46.875 48.9375 C-48 51 -48 51 -50 52 C-48.66939458 46.51125264 -44.57490475 43.00204494 -40 40 C-34.64932515 38.01947108 -29.8103028 37.68263606 -24.1875 37.75 C-23.39794922 37.75459229 -22.60839844 37.75918457 -21.79492188 37.76391602 C-15.42548878 37.86270242 -8.79430983 38.10284509 -3 41 C-2.26335379 36.98758947 -1.842159 33.11907606 -1.71875 29.04296875 C-1.68136719 27.92986328 -1.64398437 26.81675781 -1.60546875 25.66992188 C-1.57066406 24.52072266 -1.53585937 23.37152344 -1.5 22.1875 C-1.27208416 14.73802854 -0.94318847 7.39616962 0 0 Z " fill="#FCFCF8" transform="translate(522,431)"/>
<path d="M0 0 C1.39151652 4.79300133 0.68662689 9.15135782 0 14 C-0.99 14 -1.98 14 -3 14 C-3 13.01 -3 12.02 -3 11 C-5.31 10.67 -7.62 10.34 -10 10 C-10.33 8.02 -10.66 6.04 -11 4 C-11.99 3.67 -12.98 3.34 -14 3 C-14 8.61 -14 14.22 -14 20 C-14.33 20 -14.66 20 -15 20 C-15.24858198 17.22965863 -15.47452879 14.46060931 -15.6875 11.6875 C-15.76033203 10.90181641 -15.83316406 10.11613281 -15.90820312 9.30664062 C-15.96298828 8.54931641 -16.01777344 7.79199219 -16.07421875 7.01171875 C-16.13182373 6.31522217 -16.18942871 5.61872559 -16.2487793 4.90112305 C-15.91527459 2.35254488 -15.0001991 1.55499444 -13 0 C-8.43342066 -1.24543073 -4.6231554 -0.83216797 0 0 Z " fill="#FEFEFD" transform="translate(450,559)"/>
<path d="M0 0 C7.23897912 -0.48259861 7.23897912 -0.48259861 10.5625 1.625 C12 4 12 4 11.9375 7 C10.97822626 10.06967595 10.39579423 11.85204655 8 14 C4.81738719 14.46413104 2.91793933 14.60140853 0.1875 12.8125 C-1.36450492 10.44365038 -1.80213332 8.83608913 -2 6 C-1.0625 2.6875 -1.0625 2.6875 0 0 Z " fill="#FDFDFB" transform="translate(584,564)"/>
<path d="M0 0 C4.00599958 0.06051359 6.65478895 0.28368571 9.8125 2.8828125 C14.64241491 8.36864178 16.05766438 11.82865789 16 19.1328125 C15.45219255 23.75874207 13.62920205 27.53248916 10.6484375 31.1015625 C7.68568627 33.05821279 5.40914191 33.32981851 1.8984375 33.2265625 C1.09921875 33.20851563 0.3 33.19046875 -0.5234375 33.171875 C-1.12671875 33.14867187 -1.73 33.12546875 -2.3515625 33.1015625 C0.13942218 31.81236867 2.48947019 30.80119368 5.1484375 29.8515625 C9.3047238 27.77341935 10.61304817 26.25062537 12.6484375 22.1015625 C14.08574216 17.59365242 13.99323896 14.13834827 12.0859375 9.7890625 C9.90184014 6.00775108 7.91747725 4.39032922 3.6484375 3.1015625 C-0.64737715 2.570278 -4.14824393 2.59349466 -8.1640625 4.2890625 C-11.68584025 7.20710692 -14.02583429 9.17705163 -14.8203125 13.87109375 C-15.07409996 16.6169331 -15.25504668 19.34603598 -15.3515625 22.1015625 C-16.0115625 21.7715625 -16.6715625 21.4415625 -17.3515625 21.1015625 C-17.74147317 9.79415315 -17.74147317 9.79415315 -13.87109375 5.43359375 C-9.34120805 1.22369998 -6.14582007 0.26543409 0 0 Z " fill="#FDFDF9" transform="translate(346.3515625,490.8984375)"/>
<path d="M0 0 C5.67833221 -0.30419637 11.11188733 -0.27905812 16 3 C17.19712737 6.51656165 17 9.27438134 17 13 C17.2475 14.155 17.495 15.31 17.75 16.5 C18 20 18 20 16.1875 22.375 C12.94284482 24.78531528 11.06645377 25.17944575 7.0625 25.25 C6.18722656 25.27578125 5.31195313 25.3015625 4.41015625 25.328125 C1.46878904 24.92767955 0.7957842 24.31618076 -1 22 C-1.35644531 19.85522461 -1.35644531 19.85522461 -1.328125 17.40234375 C-1.32296875 16.51869141 -1.3178125 15.63503906 -1.3125 14.72460938 C-1.291875 13.80486328 -1.27125 12.88511719 -1.25 11.9375 C-1.24484375 11.01388672 -1.2396875 10.09027344 -1.234375 9.13867188 C-1.15455544 2.30911088 -1.15455544 2.30911088 0 0 Z M1 2 C0.97316564 5.31255326 0.9532422 8.62489183 0.9375 11.9375 C0.92912109 12.88302734 0.92074219 13.82855469 0.91210938 14.80273438 C0.90888672 15.70185547 0.90566406 16.60097656 0.90234375 17.52734375 C0.89710693 18.35999756 0.89187012 19.19265137 0.88647461 20.05053711 C0.78356708 22.00516798 0.78356708 22.00516798 2 23 C8.10921304 23.29188179 8.10921304 23.29188179 14 22 C16.34416899 17.81892482 15.96534098 14.80937538 15.125 10.1875 C14.75375 8.145625 14.3825 6.10375 14 4 C9.71 3.34 5.42 2.68 1 2 Z " fill="#FDFDFB" transform="translate(470,558)"/>
<path d="M0 0 C-0.33 0.66 -0.66 1.32 -1 2 C-3.64 2 -6.28 2 -9 2 C-10.00392976 8.525434 -10.00392976 8.525434 -9 15 C-4.96956927 15.34067342 -4.96956927 15.34067342 -1 15 C1.36738441 12.2507794 2.3438961 9.54296104 3 6 C3.66 6 4.32 6 5 6 C5.35467815 9.07387731 5.5059803 11.93776507 5 15 C2.05608484 17.87382195 0.01767255 18.8091864 -4 19.5625 C-7.19603116 18.96324416 -9.43649359 18.0400176 -11.8671875 15.83203125 C-14.22803074 12.01397787 -13.69100504 7.29220439 -13 3 C-9.30651275 -2.54023088 -5.87917865 -2.46105153 0 0 Z " fill="#F1F1EE" transform="translate(593,562)"/>
<path d="M0 0 C0 0.99 0 1.98 0 3 C-3.3 2.67 -6.6 2.34 -10 2 C-9.67 3.32 -9.34 4.64 -9 6 C-6.91965706 7.1375213 -6.91965706 7.1375213 -4.4375 7.75 C-3.61121094 7.99234375 -2.78492188 8.2346875 -1.93359375 8.484375 C-1.29550781 8.65453125 -0.65742187 8.8246875 0 9 C0 11.64 0 14.28 0 17 C-5.19548425 19.20808081 -8.58264203 18.93402724 -14 18 C-14 16.68 -14 15.36 -14 14 C-10.37 14.33 -6.74 14.66 -3 15 C-3 14.01 -3 13.02 -3 12 C-4.6396875 11.3503125 -4.6396875 11.3503125 -6.3125 10.6875 C-11.6686024 8.3299458 -11.6686024 8.3299458 -13 6 C-12.6875 2.3125 -12.6875 2.3125 -12 -1 C-7.84708071 -2.43754898 -3.91862041 -1.95931021 0 0 Z " fill="#F2F2EF" transform="translate(520,562)"/>
<path d="M0 0 C4.63041958 1.34038462 4.63041958 1.34038462 6.1796875 4.10546875 C7.22265725 7.78566202 7.0354709 10.81621726 6.75 14.625 C6.66234375 15.93726563 6.5746875 17.24953125 6.484375 18.6015625 C6 22 6 22 4 25 C2.35 24.67 0.7 24.34 -1 24 C-0.95117188 20.97265625 -0.95117188 20.97265625 -0.90234375 17.9453125 C-0.87350758 15.91814596 -0.87350758 15.91814596 -2 14 C-1.01 14 -0.02 14 1 14 C1 16.64 1 19.28 1 22 C1.99 22 2.98 22 4 22 C4.05380578 19.20807795 4.09357669 16.4171859 4.125 13.625 C4.14175781 12.8309375 4.15851562 12.036875 4.17578125 11.21875 C4.19335473 9.14507985 4.10335168 7.07116759 4 5 C3.34 4.34 2.68 3.68 2 3 C2 5.64 2 8.28 2 11 C0.54364629 11.22174933 -0.91522956 11.42698698 -2.375 11.625 C-3.18710937 11.74101563 -3.99921875 11.85703125 -4.8359375 11.9765625 C-5.55007813 11.98429688 -6.26421875 11.99203125 -7 12 C-7.66 11.34 -8.32 10.68 -9 10 C-8.625 7.875 -8.625 7.875 -8 6 C-7.34 6 -6.68 6 -6 6 C-5.67 6.66 -5.34 7.32 -5 8 C-4.01 7.67 -3.02 7.34 -2 7 C-0.77030122 3.48809191 -0.77030122 3.48809191 0 0 Z " fill="#FDFDFC" transform="translate(554,558)"/>
<path d="M0 0 C0 0.99 0 1.98 0 3 C-0.73605469 2.95359375 -1.47210937 2.9071875 -2.23046875 2.859375 C-8.39057288 2.54897246 -8.39057288 2.54897246 -14 4.75 C-14.99 5.86375 -14.99 5.86375 -16 7 C-16.53238281 7.515625 -17.06476562 8.03125 -17.61328125 8.5625 C-19.75941104 12.33485208 -19.31716316 15.99438851 -19.1875 20.25 C-19.17396484 21.09046875 -19.16042969 21.9309375 -19.14648438 22.796875 C-19.11123464 24.86485938 -19.0574302 26.93251271 -19 29 C-22 27 -22 27 -22.7578125 23.5859375 C-23.89552466 12.9440116 -23.89552466 12.9440116 -21.7421875 8.26953125 C-15.79130963 1.15783191 -8.93157897 -0.54683137 0 0 Z " fill="#FDFDFA" transform="translate(705,512)"/>
<path d="M0 0 C1.63541 1.5516009 3.26418957 3.11037572 4.875 4.6875 C4.38 6.1725 4.38 6.1725 3.875 7.6875 C3.42769531 7.22859375 2.98039063 6.7696875 2.51953125 6.296875 C-8.77932427 -5.17062016 -18.25498509 -9.34420232 -34.1875 -9.9375 C-35.4859082 -9.99550781 -35.4859082 -9.99550781 -36.81054688 -10.0546875 C-38.91506359 -10.14770481 -41.0200009 -10.23112669 -43.125 -10.3125 C-43.125 -10.6425 -43.125 -10.9725 -43.125 -11.3125 C-26.31809363 -13.37846523 -12.71367257 -11.62813468 0 0 Z " fill="#FDFDFA" transform="translate(651.125,480.3125)"/>
<path d="M0 0 C1.65322266 0.01740234 1.65322266 0.01740234 3.33984375 0.03515625 C4.99693359 0.04869141 4.99693359 0.04869141 6.6875 0.0625 C7.54214844 0.07410156 8.39679687 0.08570313 9.27734375 0.09765625 C9.27734375 0.75765625 9.27734375 1.41765625 9.27734375 2.09765625 C6.30734375 2.09765625 3.33734375 2.09765625 0.27734375 2.09765625 C0.27734375 7.70765625 0.27734375 13.31765625 0.27734375 19.09765625 C-0.71265625 19.09765625 -1.70265625 19.09765625 -2.72265625 19.09765625 C-4.30962469 15.92371936 -3.86580095 12.5159142 -3.84765625 9.03515625 C-3.85152344 8.28943359 -3.85539063 7.54371094 -3.859375 6.77539062 C-3.84731797 0.13799562 -3.84731797 0.13799562 0 0 Z " fill="#F4F5F2" transform="translate(622.72265625,560.90234375)"/>
<path d="M0 0 C1.32 0.33 2.64 0.66 4 1 C3.67 5.95 3.34 10.9 3 16 C5.97 16 8.94 16 12 16 C12 16.99 12 17.98 12 19 C10.37509046 19.02698189 8.75005367 19.04638757 7.125 19.0625 C5.76761719 19.07990234 5.76761719 19.07990234 4.3828125 19.09765625 C2 19 2 19 0 18 C0 12.06 0 6.12 0 0 Z " fill="#EFF0ED" transform="translate(436,562)"/>
<path d="M0 0 C1.77049689 -0.05410687 3.54146849 -0.09284119 5.3125 -0.125 C6.29863281 -0.14820313 7.28476562 -0.17140625 8.30078125 -0.1953125 C11 0 11 0 14 2 C14.3984375 4.49609375 14.3984375 4.49609375 14.375 7.4375 C14.38273438 8.40558594 14.39046875 9.37367188 14.3984375 10.37109375 C14 13 14 13 12.6640625 14.828125 C11 16 11 16 8 16.3125 C7.01 16.539375 6.02 16.76625 5 17 C3.06530151 19.95071844 3.06530151 19.95071844 2 23 C1.34 22.34 0.68 21.68 0 21 C0.66 21 1.32 21 2 21 C2 18.03 2 15.06 2 12 C2.33 12.66 2.66 13.32 3 14 C5.64 14 8.28 14 11 14 C11.19573608 12.56359829 11.38127816 11.12580496 11.5625 9.6875 C11.71912109 8.48673828 11.71912109 8.48673828 11.87890625 7.26171875 C12.14755178 4.83182884 12.14755178 4.83182884 11 2 C7.37 2 3.74 2 0 2 C0 1.34 0 0.68 0 0 Z " fill="#FDFDFB" transform="translate(621,559)"/>
<path d="M0 0 C0.33 0 0.66 0 1 0 C1.80441937 7.13549773 0.8221821 11.35698278 -3.39453125 17.1875 C-5 19 -5 19 -8 21 C-11.35546875 21.1953125 -11.35546875 21.1953125 -15.1875 21.125 C-16.45980469 21.10695313 -17.73210937 21.08890625 -19.04296875 21.0703125 C-20.01878906 21.04710937 -20.99460937 21.02390625 -22 21 C-22.33 20.01 -22.66 19.02 -23 18 C-22.43152344 18.09539063 -21.86304688 18.19078125 -21.27734375 18.2890625 C-16.0404996 19.04092994 -11.90594233 19.35862612 -7 17 C-2.55858818 12.17888199 -1.44738783 7.37527653 -1 1 C-0.67 0.67 -0.34 0.34 0 0 Z " fill="#FDFDFA" transform="translate(522,503)"/>
<path d="M0 0 C-0.33 0.66 -0.66 1.32 -1 2 C-4.25813091 2.53166153 -7.51487793 2.8317633 -10.80078125 3.14453125 C-14.77413844 4.20700405 -15.81511737 5.58833873 -18 9 C-18.53625 10.0725 -19.0725 11.145 -19.625 12.25 C-21 15 -21 15 -23 16 C-22.40739453 11.25915627 -21.06359188 6.71490669 -18 3 C-12.33234085 -0.02943905 -6.29723512 -0.3498464 0 0 Z " fill="#FDFCF9" transform="translate(624,491)"/>
<path d="M0 0 C2 3 2 3 2 5 C6.455 4.505 6.455 4.505 11 4 C11.33 2.68 11.66 1.36 12 0 C12.66 1.32 13.32 2.64 14 4 C12 7 12 7 9.8125 7.6875 C6.52303184 8.05299646 3.30703016 8.06484373 0 8 C-1.43088528 5.13822943 -0.59991697 3.06624227 0 0 Z " fill="#F0F0EE" transform="translate(472,573)"/>
<path d="M0 0 C4.26341623 3.56937173 4.26341623 3.56937173 5.6875 6.25 C5.25390625 8.375 5.25390625 8.375 4.6875 10.25 C4.37296875 9.76789063 4.0584375 9.28578125 3.734375 8.7890625 C3.30640625 8.15742188 2.8784375 7.52578125 2.4375 6.875 C1.81101562 5.93527344 1.81101562 5.93527344 1.171875 4.9765625 C-0.57117424 2.94912102 -1.79477008 2.14918926 -4.3125 1.25 C-7.13335728 1.00926806 -7.13335728 1.00926806 -10.0625 1.125 C-11.04734375 1.14304687 -12.0321875 1.16109375 -13.046875 1.1796875 C-13.79453125 1.20289063 -14.5421875 1.22609375 -15.3125 1.25 C-15.3125 0.59 -15.3125 -0.07 -15.3125 -0.75 C-9.88047918 -2.56067361 -5.00689739 -2.64515334 0 0 Z " fill="#FDFDFA" transform="translate(515.3125,492.75)"/>
<path d="M0 0 C1.79244141 0.01740234 1.79244141 0.01740234 3.62109375 0.03515625 C5.41740234 0.04869141 5.41740234 0.04869141 7.25 0.0625 C8.17683594 0.07410156 9.10367187 0.08570313 10.05859375 0.09765625 C10.05859375 1.08765625 10.05859375 2.07765625 10.05859375 3.09765625 C8.62151285 3.15188572 7.18383913 3.19055348 5.74609375 3.22265625 C4.94558594 3.24585938 4.14507812 3.2690625 3.3203125 3.29296875 C1.05859375 3.09765625 1.05859375 3.09765625 -1.94140625 1.09765625 C-1.94140625 6.70765625 -1.94140625 12.31765625 -1.94140625 18.09765625 C-2.27140625 18.09765625 -2.60140625 18.09765625 -2.94140625 18.09765625 C-3.13524804 15.2854592 -3.32177228 12.47311429 -3.50390625 9.66015625 C-3.55998047 8.85771484 -3.61605469 8.05527344 -3.67382812 7.22851562 C-3.80303575 5.18703514 -3.87653355 3.14219256 -3.94140625 1.09765625 C-2.94140625 0.09765625 -2.94140625 0.09765625 0 0 Z " fill="#F8F8F6" transform="translate(437.94140625,560.90234375)"/>
<path d="M0 0 C2.64 0 5.28 0 8 0 C8.042721 1.66611905 8.04063832 3.33382885 8 5 C7 6 7 6 3.4375 6.0625 C2.303125 6.041875 1.16875 6.02125 0 6 C0 4.02 0 2.04 0 0 Z " fill="#FEFEFB" transform="translate(474,572)"/>
<path d="M0 0 C0.66 0.33 1.32 0.66 2 1 C0.50128789 7.23520793 -1.13285904 13.78776654 -5 19 C-5.66 19 -6.32 19 -7 19 C-6.25328018 15.73598759 -5.20740233 12.64524112 -4.0625 9.5 C-3.55396484 8.09234375 -3.55396484 8.09234375 -3.03515625 6.65625 C-2.13770752 4.35336269 -1.14940804 2.18542156 0 0 Z " fill="#F0F0EE" transform="translate(413,561)"/>
<path d="M0 0 C2.0078125 0.1328125 2.0078125 0.1328125 5.0078125 1.1328125 C5.0078125 3.4428125 5.0078125 5.7528125 5.0078125 8.1328125 C4.3478125 7.8028125 3.6878125 7.4728125 3.0078125 7.1328125 C3.0078125 5.8128125 3.0078125 4.4928125 3.0078125 3.1328125 C-2.57719317 3.33179958 -2.57719317 3.33179958 -6.9921875 6.1328125 C-7.0349085 4.46669345 -7.03282582 2.79898365 -6.9921875 1.1328125 C-5.11159717 -0.74777783 -2.49328712 0.00920032 0 0 Z " fill="#EEEFEB" transform="translate(478.9921875,560.8671875)"/>
<path d="M0 0 C2.64 0 5.28 0 8 0 C7.67 1.65 7.34 3.3 7 5 C5.02 5 3.04 5 1 5 C0.67 3.35 0.34 1.7 0 0 Z " fill="#FDFEF9" transform="translate(474,564)"/>
<path d="M0 0 C1.32 0.33 2.64 0.66 4 1 C3.21625 1.556875 2.4325 2.11375 1.625 2.6875 C-2.77610491 6.56466385 -3.47978089 11.46205896 -5 17 C-5.33 17 -5.66 17 -6 17 C-6.6896868 11.4825056 -6.44252427 7.95480298 -3 3.4375 C-2.02037689 2.27419755 -1.02697231 1.12172274 0 0 Z " fill="#FDFCF9" transform="translate(496,494)"/>
<path d="M0 0 C0.98120464 3.05263664 0.98120464 4.94736336 0 8 C-1.32 8 -2.64 8 -4 8 C-4.33 6.35 -4.66 4.7 -5 3 C-3.35 2.01 -1.7 1.02 0 0 Z " fill="#F0F1ED" transform="translate(399,572)"/>
<path d="M0 0 C1.32 0.33 2.64 0.66 4 1 C3.01 3.64 2.02 6.28 1 9 C-0.32 8.67 -1.64 8.34 -3 8 C-2.01 8 -1.02 8 0 8 C0 5.36 0 2.72 0 0 Z " fill="#FDFDFB" transform="translate(545,572)"/>
<path d="M0 0 C2.31 0 4.62 0 7 0 C7 0.99 7 1.98 7 3 C4.69 3 2.38 3 0 3 C0 2.01 0 1.02 0 0 Z " fill="#F1F1ED" transform="translate(440,569)"/>
</svg>
